<?xml version="1.0" standalone="no"?>
<!DOCTYPE svg PUBLIC "-//W3C//DTD SVG 20010904//EN"
 "http://www.w3.org/TR/2001/REC-SVG-20010904/DTD/svg10.dtd">
<svg version="1.0" xmlns="http://www.w3.org/2000/svg"
 width="1080.000000pt" height="1080.000000pt" viewBox="0 0 1080.000000 1080.000000"
 preserveAspectRatio="xMidYMid meet" >

<g transform="translate(0.000000,1080.000000) scale(0.100000,-0.100000)"
fill="#BE3A3C"  stroke="none">
<path d="M5144 9647 c-83 -111 -278 -373 -434 -582 -155 -209 -295 -396 -310
-415 -110 -143 -184 -275 -224 -400 -16 -47 -32 -96 -37 -109 -22 -53 -33
-289 -21 -421 6 -70 15 -138 21 -151 5 -13 21 -62 36 -109 72 -225 236 -446
435 -587 89 -64 230 -135 320 -163 41 -12 98 -30 125 -39 76 -24 436 -23 520
3 235 70 362 134 500 250 208 176 331 371 402 641 25 91 27 116 27 285 0 168
-2 195 -27 292 -45 181 -102 292 -251 495 -50 68 -98 134 -106 146 -8 11 -133
179 -277 371 -254 341 -506 680 -507 682 -1 1 -10 4 -21 7 -17 5 -45 -27 -171
-196z m287 -1134 c31 -32 69 -77 83 -100 15 -25 34 -43 44 -43 10 0 44 13 75
29 49 25 174 61 212 61 33 0 85 -158 85 -254 0 -61 18 -72 122 -79 69 -4 108
-12 151 -31 57 -25 57 -25 57 -69 0 -47 -25 -129 -65 -215 -14 -29 -25 -54
-25 -56 0 -2 24 -20 53 -39 80 -53 177 -156 177 -187 0 -34 -74 -118 -153
-174 -34 -24 -100 -59 -147 -77 -83 -33 -88 -34 -235 -34 -147 0 -151 1 -235
34 -99 40 -163 82 -241 158 -64 62 -67 62 -129 -3 -75 -79 -169 -135 -289
-174 -91 -29 -276 -29 -363 1 -94 32 -157 63 -219 111 -67 51 -139 132 -139
156 0 26 82 114 161 172 49 37 69 58 66 69 -3 9 -19 50 -37 91 -38 90 -53 154
-45 191 8 37 90 67 213 78 51 5 95 11 99 14 3 4 14 57 24 119 21 125 32 158
59 183 17 16 24 16 97 -1 43 -9 104 -30 137 -46 70 -35 93 -32 123 19 29 52
118 150 151 166 36 18 61 5 133 -70z"/>
<path d="M3323 7778 c-21 -15 -39 -42 -52 -76 -19 -49 -21 -76 -21 -290 0
-230 27 -591 50 -667 5 -16 12 -52 16 -80 13 -101 72 -320 100 -374 8 -14 14
-29 14 -33 0 -4 23 -47 51 -95 92 -157 172 -244 379 -408 184 -148 237 -237
310 -520 10 -38 21 -90 24 -115 4 -25 11 -72 17 -105 5 -33 13 -112 17 -175
l7 -115 315 -3 c173 -1 325 0 336 3 16 3 23 15 28 44 3 22 6 242 6 488 0 385
-2 468 -19 593 -21 162 -39 211 -117 331 -26 41 -51 76 -54 79 -3 3 -37 43
-74 90 -37 47 -86 105 -109 130 -22 25 -63 70 -91 100 -27 30 -128 135 -223
232 -189 193 -214 210 -283 189 -52 -15 -75 -44 -74 -95 0 -46 29 -94 163
-271 42 -55 87 -116 100 -135 125 -180 146 -225 118 -249 -23 -18 -73 6 -172
84 -102 80 -194 179 -244 265 -55 94 -116 283 -146 450 -3 19 -13 64 -21 100
-8 36 -26 121 -40 190 -55 277 -97 370 -192 431 -55 35 -77 36 -119 7z"/>
<path d="M7220 7778 c-98 -64 -148 -173 -200 -433 -132 -667 -161 -740 -373
-942 -92 -87 -175 -147 -219 -158 -33 -8 -53 21 -39 57 10 26 103 166 160 243
21 28 81 110 134 183 86 119 97 138 97 176 0 75 -76 122 -154 96 -26 -8 -89
-67 -234 -218 -371 -385 -515 -562 -592 -722 -53 -111 -75 -417 -67 -940 5
-342 7 -375 23 -387 25 -19 647 -19 662 0 5 6 12 66 15 132 9 227 69 491 148
650 40 82 100 149 212 236 184 143 334 315 415 474 73 142 148 450 172 705 27
277 31 369 27 540 -4 200 -16 257 -61 299 -35 33 -84 36 -126 9z"/>
<path d="M6536 4448 c-208 -47 -340 -185 -396 -413 -20 -80 -22 -107 -17 -235
9 -225 59 -352 219 -548 48 -59 222 -228 322 -312 56 -49 154 -171 189 -238
60 -116 81 -255 53 -359 -29 -109 -77 -152 -180 -160 -80 -7 -135 9 -179 52
-46 44 -56 82 -64 225 -3 63 -10 123 -15 133 -8 16 -25 17 -176 15 l-167 -3
-9 -49 c-12 -68 8 -297 32 -366 47 -134 94 -202 186 -268 103 -75 167 -93 346
-99 147 -5 241 12 338 59 67 32 172 136 209 206 61 116 78 198 78 377 0 167
-10 227 -58 355 -47 123 -178 291 -348 443 -271 243 -351 354 -381 525 -18
107 1 201 54 258 93 101 269 77 334 -47 12 -24 19 -67 23 -147 5 -85 10 -115
21 -122 20 -13 321 -13 340 0 12 8 14 30 12 122 -5 194 -57 348 -153 453 -61
66 -152 122 -223 137 -28 5 -69 14 -91 19 -68 14 -205 8 -299 -13z"/>
<path d="M1908 4433 c-10 -2 -20 -14 -22 -26 -9 -46 -35 -204 -41 -247 -4 -25
-13 -79 -20 -120 -8 -41 -19 -109 -26 -150 -16 -105 -35 -223 -48 -302 -6 -38
-16 -98 -22 -135 -10 -66 -25 -162 -49 -308 -6 -38 -17 -108 -25 -155 -8 -47
-23 -139 -34 -205 -38 -230 -43 -261 -57 -345 -8 -47 -21 -132 -29 -190 -8
-58 -19 -121 -24 -140 -6 -19 -15 -72 -20 -117 -6 -45 -13 -93 -17 -107 -5
-23 -3 -25 38 -31 71 -11 308 -2 316 12 4 6 16 67 25 135 37 252 52 323 70
340 15 16 40 18 222 18 192 0 206 -1 225 -20 11 -11 20 -23 20 -27 1 -5 7 -55
15 -113 27 -207 47 -325 56 -335 12 -12 363 -14 375 -2 4 4 -3 71 -16 150 -12
78 -29 180 -35 227 -14 94 -40 248 -55 325 -5 28 -12 75 -15 105 -4 30 -11 76
-16 101 -10 43 -21 114 -53 329 -19 123 -43 265 -61 363 -8 42 -15 92 -15 110
0 18 -5 48 -11 67 -6 19 -17 78 -24 130 -8 52 -23 151 -35 220 -11 69 -27 166
-35 215 -25 160 -36 219 -41 225 -7 6 -493 10 -516 3z m260 -590 c11 -43 23
-109 26 -148 4 -38 13 -110 21 -160 37 -241 45 -294 50 -350 6 -63 26 -199 51
-346 17 -107 17 -104 -2 -123 -13 -13 -43 -16 -169 -16 -195 0 -187 -8 -169
157 7 64 16 128 19 141 3 13 12 74 20 136 38 291 63 466 87 616 32 205 36 209
66 93z"/>
<path d="M3243 4433 c-26 -5 -28 -23 -13 -88 5 -22 14 -76 19 -120 6 -44 20
-138 31 -210 11 -71 26 -175 35 -230 8 -55 23 -158 34 -230 31 -202 40 -262
57 -380 8 -60 21 -144 29 -185 8 -41 17 -102 20 -135 4 -33 11 -84 16 -113 11
-56 27 -161 59 -382 11 -74 27 -178 35 -230 8 -52 20 -133 27 -178 10 -72 15
-85 34 -92 26 -10 425 -13 472 -4 26 5 33 13 41 43 9 41 27 151 46 291 8 52
23 156 35 230 12 74 28 178 35 230 8 52 23 156 34 230 12 74 26 171 31 215 6
44 17 116 25 160 15 84 28 167 51 325 12 86 22 155 69 460 8 52 21 140 29 195
7 55 17 121 21 146 6 43 5 47 -17 52 -36 10 -284 8 -311 -2 -22 -8 -25 -19
-41 -138 -9 -70 -19 -148 -22 -173 -2 -25 -11 -90 -19 -145 -29 -204 -45 -322
-55 -415 -6 -52 -13 -102 -15 -111 -5 -15 -23 -153 -50 -381 -7 -65 -16 -126
-19 -135 -3 -10 -10 -58 -16 -108 -15 -139 -42 -302 -51 -316 -4 -8 -11 -10
-15 -7 -10 11 -34 133 -49 253 -8 61 -23 178 -35 260 -11 83 -27 206 -35 275
-7 69 -16 132 -19 140 -3 8 -12 74 -21 145 -21 180 -42 338 -54 415 -5 36 -20
145 -32 243 -13 97 -26 183 -31 190 -5 9 -54 12 -175 13 -92 1 -178 0 -190 -3z"/>
<path d="M5133 4433 l-23 -4 0 -1283 0 -1283 38 -7 c59 -9 315 -7 332 4 13 8
15 162 15 1285 0 1123 -2 1277 -15 1285 -15 9 -302 12 -347 3z"/>
<path d="M8248 4433 c-17 -4 -27 -39 -48 -168 -6 -38 -18 -106 -25 -150 -8
-44 -20 -114 -26 -155 -6 -41 -20 -129 -31 -195 -11 -66 -24 -147 -29 -180 -5
-33 -15 -98 -23 -145 -19 -111 -41 -244 -66 -405 -12 -71 -25 -155 -31 -185
-5 -30 -16 -95 -23 -145 -8 -49 -24 -148 -36 -220 -22 -139 -41 -256 -64 -400
-8 -50 -20 -119 -27 -153 -7 -34 -9 -65 -5 -69 9 -9 341 -11 350 -2 7 6 20 84
56 334 16 106 24 133 41 148 19 15 45 17 213 17 105 0 201 -3 213 -6 29 -8 41
-44 63 -204 30 -216 41 -285 47 -290 2 -3 82 -6 176 -8 215 -4 212 -6 197 98
-5 41 -17 109 -25 150 -8 41 -24 138 -35 215 -12 77 -27 174 -35 215 -8 41
-24 140 -35 220 -12 80 -26 161 -31 180 -5 20 -15 83 -24 140 -28 200 -45 301
-49 309 -3 4 -10 50 -16 102 -6 52 -15 114 -21 139 -12 56 -35 196 -54 320
-22 145 -44 280 -54 335 -6 28 -13 73 -16 101 -6 48 -9 52 -37 58 -34 7 -464
6 -490 -1z m270 -648 c7 -33 16 -105 22 -160 6 -55 13 -107 16 -115 3 -8 12
-62 19 -120 26 -199 37 -275 55 -395 29 -183 35 -262 20 -280 -18 -21 -322
-22 -339 -1 -12 14 5 190 39 416 5 36 17 115 25 175 8 61 20 144 26 185 5 41
17 122 25 180 17 125 33 206 47 240 10 24 10 23 22 -20 7 -25 17 -72 23 -105z"/>
<path d="M6128 1600 c-31 -33 -38 -49 -39 -83 -3 -112 8 -136 88 -204 119
-100 143 -129 144 -176 2 -59 0 -66 -24 -98 -18 -26 -27 -29 -74 -29 -51 0
-54 2 -78 40 -14 22 -25 51 -25 64 0 29 -17 43 -32 28 -17 -17 1 -99 28 -132
53 -63 178 -61 221 3 26 39 37 103 28 156 -7 43 -47 91 -144 170 -86 71 -107
123 -80 199 31 89 150 79 179 -16 22 -71 19 -67 36 -50 25 25 8 86 -36 131
-35 34 -42 37 -95 37 -55 0 -60 -2 -97 -40z"/>
<path d="M7155 1631 c-16 -7 -24 -28 -38 -97 -10 -49 -24 -111 -32 -139 -7
-27 -17 -72 -20 -100 -4 -27 -10 -59 -15 -70 -9 -20 -38 -151 -47 -212 -4 -25
-2 -33 10 -33 21 0 29 14 42 74 13 56 24 63 106 65 60 1 110 -9 114 -23 27
-101 40 -130 56 -120 13 8 11 60 -5 123 -8 31 -19 79 -26 106 -6 28 -20 91
-31 140 -12 50 -24 111 -29 136 -17 95 -41 160 -59 158 -3 0 -15 -4 -26 -8z
m39 -153 c2 -13 12 -54 21 -93 24 -98 39 -201 31 -220 -5 -13 -19 -15 -78 -13
l-73 3 -3 38 c-2 20 6 72 16 115 11 42 23 100 27 127 4 28 12 53 18 57 22 14
37 8 41 -14z"/>
<path d="M7476 1619 c-40 -31 -58 -75 -58 -139 0 -71 19 -108 79 -157 164
-132 193 -197 131 -286 -18 -26 -24 -28 -76 -25 -54 3 -57 5 -79 43 -12 22
-23 50 -23 62 0 12 -5 25 -11 29 -18 11 -30 -18 -23 -61 14 -91 89 -138 183
-115 66 17 94 55 99 135 5 79 -14 123 -76 173 -86 70 -134 116 -148 143 -39
76 12 179 87 179 42 0 88 -45 95 -91 8 -45 17 -55 34 -34 22 27 3 90 -41 130
-34 31 -45 35 -93 35 -39 0 -60 -6 -80 -21z"/>
<path d="M7771 1631 c-22 -14 -3 -31 37 -31 69 0 66 12 72 -317 5 -298 5 -298
27 -301 l22 -3 3 301 c3 335 0 320 75 320 44 0 65 16 42 31 -8 5 -70 9 -139 9
-69 0 -131 -4 -139 -9z"/>
<path d="M8986 1625 c-8 -9 -18 -32 -21 -53 -4 -20 -13 -58 -21 -84 -8 -27
-17 -69 -20 -95 -3 -27 -11 -70 -19 -98 -8 -27 -19 -72 -25 -100 -6 -27 -15
-66 -20 -85 -5 -19 -10 -55 -12 -80 -2 -35 1 -45 14 -48 13 -2 18 8 24 44 11
72 38 94 118 94 86 0 113 -11 120 -49 3 -17 9 -44 12 -61 4 -24 11 -30 31 -30
22 0 24 3 19 23 -4 12 -11 46 -16 76 -5 30 -16 72 -24 95 -8 22 -19 68 -24
101 -16 93 -39 197 -51 228 -6 16 -11 44 -11 63 0 21 -8 42 -20 54 -24 24 -34
25 -54 5z m52 -173 c12 -38 22 -80 22 -94 0 -13 10 -55 21 -92 17 -54 19 -73
10 -92 -10 -22 -16 -24 -81 -24 -66 0 -71 2 -82 26 -9 20 -8 36 5 77 9 29 19
68 22 87 4 19 12 55 20 80 7 25 16 57 19 73 4 15 10 27 14 27 5 0 18 -31 30
-68z"/>
<path d="M6443 1578 c2 -29 14 -111 26 -183 12 -71 26 -157 31 -190 18 -122
33 -200 42 -217 10 -21 43 -24 55 -5 10 16 43 175 43 211 0 52 48 251 58 242
6 -6 20 -77 42 -211 7 -38 20 -110 29 -160 16 -89 17 -90 46 -90 30 0 30 1 42
80 19 128 40 265 52 330 16 95 31 228 26 233 -2 2 -11 2 -19 -1 -9 -4 -17 -27
-21 -64 -3 -32 -12 -87 -20 -123 -8 -36 -17 -102 -21 -147 -6 -78 -30 -143
-53 -143 -5 0 -12 30 -15 68 -4 37 -11 90 -17 117 -6 28 -17 95 -24 150 -16
116 -28 155 -50 155 -22 0 -33 -36 -50 -158 -7 -59 -18 -129 -24 -157 -5 -27
-12 -76 -16 -107 -4 -34 -11 -58 -18 -58 -30 1 -39 22 -53 121 -27 204 -50
327 -63 343 -24 29 -33 18 -28 -36z"/>
<path d="M8120 1307 c0 -178 3 -326 6 -330 3 -3 12 -3 20 0 11 4 14 32 14 132
0 167 3 171 110 171 68 0 81 -3 90 -19 5 -11 10 -78 10 -150 l0 -131 25 0 25
0 -2 323 c-3 314 -3 322 -23 322 -19 0 -20 -8 -23 -139 -1 -82 -7 -145 -14
-153 -15 -18 -148 -18 -174 1 -17 13 -20 31 -24 153 -4 121 -7 138 -22 141
-17 3 -18 -17 -18 -321z"/>
<path d="M8499 1623 c-4 -26 7 -68 36 -143 95 -249 95 -248 95 -366 0 -77 4
-116 13 -129 23 -31 32 0 38 140 5 114 10 141 40 225 19 52 37 100 41 105 3 6
11 26 16 45 6 19 17 53 25 75 16 42 14 55 -7 55 -12 0 -46 -60 -46 -83 -1 -7
-9 -30 -20 -52 -11 -22 -19 -46 -20 -54 0 -18 -43 -111 -52 -111 -10 0 -45 61
-56 100 -33 112 -73 200 -89 200 -7 0 -13 -3 -14 -7z"/>
</g>
</svg>
