<?xml version="1.0" standalone="no"?>
<!DOCTYPE svg PUBLIC "-//W3C//DTD SVG 20010904//EN"
 "http://www.w3.org/TR/2001/REC-SVG-20010904/DTD/svg10.dtd">
<svg version="1.0" xmlns="http://www.w3.org/2000/svg"
 width="1080.000000pt" height="1080.000000pt" viewBox="0 0 1080.000000 1080.000000"
 preserveAspectRatio="xMidYMid meet">

<g transform="translate(0.000000,1080.000000) scale(0.100000,-0.100000)"
fill="#000000" stroke="none">
<path d="M2765 8563 c-599 -994 -1245 -2064 -1434 -2378 -420 -697 -503 -862
-615 -1215 -67 -216 -118 -451 -148 -700 -17 -141 -17 -631 0 -775 122 -996
598 -1834 1377 -2420 1490 -1121 3502 -766 4616 815 83 118 259 427 259 455 0
3 -6 5 -14 5 -33 0 -272 75 -401 127 -728 288 -1317 826 -1663 1519 -525 1052
-421 2307 270 3255 96 131 274 336 369 422 l72 66 -169 279 c-93 154 -450 746
-794 1315 -344 570 -627 1036 -630 1036 -3 0 -495 -813 -1095 -1806z"/>
<path d="M7030 7204 c-14 -2 -59 -9 -100 -15 -352 -52 -748 -284 -1032 -603
-303 -342 -470 -748 -471 -1146 0 -155 18 -266 64 -398 215 -611 927 -818
1622 -471 54 27 101 49 105 49 4 0 18 -28 31 -62 156 -409 534 -757 973 -896
174 -56 247 -67 443 -66 151 0 194 4 268 22 358 89 599 310 698 637 33 110 38
337 9 475 -98 481 -505 912 -1020 1080 -120 39 -246 64 -388 75 l-83 7 5 27
c11 50 26 206 26 265 0 86 -28 257 -57 350 -62 200 -201 391 -368 506 -76 52
-205 109 -310 136 -79 20 -130 26 -245 29 -80 2 -156 2 -170 -1z"/>
</g>
</svg>
