<?xml version="1.0" standalone="no"?>
<!DOCTYPE svg PUBLIC "-//W3C//DTD SVG 20010904//EN"
 "http://www.w3.org/TR/2001/REC-SVG-20010904/DTD/svg10.dtd">
<svg version="1.0" xmlns="http://www.w3.org/2000/svg"
 width="1080.000000pt" height="1080.000000pt" viewBox="0 0 1080.000000 1080.000000"
 preserveAspectRatio="xMidYMid meet">

<g transform="translate(0.000000,1080.000000) scale(0.100000,-0.100000)"
fill="#000000" stroke="none">
<path d="M4525 10683 c-495 -43 -971 -263 -1325 -613 -128 -126 -205 -220
-300 -366 -645 -988 -367 -2319 620 -2976 492 -327 1094 -435 1684 -303 459
103 891 375 1191 749 258 322 413 692 466 1111 12 97 15 382 5 455 -4 25 -11
79 -17 120 -47 334 -210 711 -427 990 -419 538 -1058 847 -1731 838 -69 -1
-144 -3 -166 -5z m520 -423 c603 -127 1083 -527 1306 -1086 180 -456 157 -991
-64 -1429 -229 -456 -655 -800 -1142 -924 -305 -77 -665 -66 -970 29 -403 126
-786 440 -1000 820 -92 162 -165 366 -202 563 -24 129 -24 465 0 594 68 362
226 669 476 927 279 286 628 465 1021 522 140 20 444 12 575 -16z"/>
<path d="M3269 6300 c-915 -69 -1641 -837 -1658 -1756 -4 -225 74 -636 187
-980 100 -303 288 -712 452 -984 645 -1065 1677 -1896 3043 -2450 l57 -24 83
33 c574 232 1277 603 1787 944 675 451 1149 884 1380 1262 71 115 138 257 148
312 20 114 -17 223 -105 303 -68 63 -129 83 -230 78 l-75 -3 25 20 c153 128
211 181 279 259 510 582 599 1413 222 2079 -81 143 -185 276 -315 402 -275
267 -593 428 -969 490 -116 19 -346 27 -457 15 -624 -68 -1159 -438 -1437
-997 l-56 -112 32 -53 c17 -29 80 -140 139 -247 l108 -193 6 38 c52 297 190
559 404 767 115 112 213 182 345 249 312 157 645 194 981 108 495 -126 879
-510 1005 -1005 131 -513 -33 -1044 -432 -1401 -169 -151 -396 -265 -638 -320
-90 -21 -375 -30 -469 -15 -203 32 -532 275 -760 560 -173 218 -290 411 -551
911 -173 331 -248 463 -365 640 -245 370 -477 581 -770 701 -54 22 -136 62
-182 90 -346 209 -788 311 -1214 279z m-202 -459 c-30 -16 -81 -47 -113 -69
-70 -47 -214 -169 -214 -181 0 -4 28 -2 63 5 349 74 723 -146 842 -495 90
-265 21 -557 -179 -757 -120 -119 -268 -193 -426 -212 -265 -31 -513 68 -676
270 l-29 37 3 -42 c44 -613 269 -1235 654 -1811 492 -734 1235 -1375 2250
-1941 110 -62 144 -85 135 -94 -6 -6 -16 -11 -23 -11 -35 0 -537 240 -728 347
-358 201 -664 411 -959 656 -148 123 -433 400 -571 557 -516 584 -869 1272
-1030 2000 -94 427 -70 705 89 1025 169 341 460 593 820 711 128 43 167 45 92
5z"/>
</g>
</svg>
