<?xml version="1.0" standalone="no"?>
<!DOCTYPE svg PUBLIC "-//W3C//DTD SVG 20010904//EN"
 "http://www.w3.org/TR/2001/REC-SVG-20010904/DTD/svg10.dtd">
<svg version="1.0" xmlns="http://www.w3.org/2000/svg"
 width="1080.000000pt" height="1080.000000pt" viewBox="0 0 1080.000000 1080.000000"
 preserveAspectRatio="xMidYMid meet">

<g transform="translate(0.000000,1080.000000) scale(0.100000,-0.100000)"
fill="#000000" stroke="none">
<path d="M6677 10774 c-110 -17 -397 -94 -537 -144 -732 -260 -1327 -899
-1639 -1757 -168 -461 -244 -904 -245 -1428 -1 -540 68 -953 246 -1479 60
-179 199 -528 297 -751 39 -88 71 -163 71 -166 0 -7 -17 -17 -235 -139 -901
-505 -1924 -925 -2930 -1204 -138 -38 -160 -46 -157 -62 4 -21 593 -2047 597
-2052 5 -6 172 23 275 49 746 188 1973 817 3205 1642 55 37 104 67 110 67 5 0
70 -107 144 -238 463 -817 1114 -1876 1709 -2777 112 -171 206 -312 208 -315
5 -4 1464 1451 1464 1460 0 3 -77 97 -171 210 -499 599 -1085 1353 -1530 1970
-150 207 -426 600 -483 687 l-27 41 126 157 c394 489 779 1056 1070 1576 418
747 668 1422 755 2034 6 44 13 94 15 110 21 136 15 533 -10 690 -96 608 -421
1095 -966 1448 -184 119 -526 287 -627 307 -26 5 -81 19 -122 30 -177 49 -431
63 -613 34z m343 -1023 c393 -81 727 -293 1000 -637 120 -151 235 -344 325
-547 l53 -120 -30 -86 c-272 -775 -993 -1680 -1828 -2292 -108 -79 -351 -241
-369 -246 -18 -4 -132 203 -297 537 -261 529 -441 1026 -503 1392 -61 355 -69
1032 -16 1250 78 315 506 634 992 738 156 33 224 39 408 35 115 -3 200 -11
265 -24z"/>
</g>
</svg>
