<?xml version="1.0" standalone="no"?>
<!DOCTYPE svg PUBLIC "-//W3C//DTD SVG 20010904//EN"
 "http://www.w3.org/TR/2001/REC-SVG-20010904/DTD/svg10.dtd">
<svg version="1.0" xmlns="http://www.w3.org/2000/svg"
 width="1080.000000pt" height="1080.000000pt" viewBox="0 0 1080.000000 1080.000000"
 preserveAspectRatio="xMidYMid meet">

<g transform="translate(0.000000,1080.000000) scale(0.100000,-0.100000)"
fill="#000000" stroke="none">
<path d="M2785 8804 c-600 -401 -1118 -958 -1486 -1599 -300 -524 -507 -1147
-583 -1755 -54 -436 -46 -916 24 -1349 224 -1380 1040 -2588 2240 -3316 1138
-690 2524 -868 3810 -489 760 224 1439 631 2015 1209 807 809 1278 1828 1375
2975 16 188 13 622 -5 817 -81 869 -396 1692 -915 2388 -332 446 -746 841
-1183 1128 -84 56 -107 62 -107 31 0 -8 -20 -69 -45 -136 -25 -67 -45 -123
-45 -124 0 -1 43 -32 95 -69 125 -87 267 -198 389 -304 l99 -86 -89 -6 c-199
-14 -340 -116 -461 -337 -24 -42 -44 -80 -45 -85 -2 -4 -39 0 -83 10 -56 12
-128 17 -240 17 -258 1 -362 -12 -540 -71 -397 -129 -647 -439 -647 -798 1
-119 14 -188 81 -400 65 -210 79 -265 87 -356 11 -127 -25 -269 -91 -355 -33
-43 -31 -54 5 -54 50 0 137 39 187 84 l48 44 50 -95 c58 -111 149 -216 234
-268 l58 -36 6 -94 c8 -124 39 -273 82 -392 l34 -97 -82 -85 c-46 -47 -97
-111 -114 -141 -98 -171 -159 -444 -183 -814 -12 -187 -8 -176 -109 -303 l-41
-52 -292 207 c-347 246 -316 226 -332 213 -14 -12 -111 94 -319 350 -109 134
-176 196 -263 241 -120 62 -324 118 -432 118 -58 0 -68 3 -106 34 -71 59 -141
86 -223 86 -39 0 -83 -4 -96 -9 -23 -9 -28 -5 -60 42 -142 214 -332 328 -687
414 -80 19 -148 37 -151 41 -4 4 -10 46 -13 94 l-7 86 53 7 c207 28 363 134
443 300 70 145 91 304 103 805 l7 274 40 8 c129 22 253 103 312 203 25 42 17
52 -45 57 -74 5 -132 35 -154 79 -10 19 -33 75 -51 124 -95 263 -373 519 -635
586 -119 30 -296 20 -402 -24 -19 -8 -69 -17 -110 -21 -197 -17 -384 -103
-533 -245 -176 -167 -245 -333 -262 -632 -7 -114 -10 -126 -37 -163 -63 -87
-74 -226 -28 -348 19 -53 75 -118 100 -118 14 0 12 -46 -4 -83 -8 -18 -32 -52
-55 -77 -49 -52 -44 -63 37 -82 29 -7 52 -16 52 -20 0 -4 -22 -19 -48 -32 -88
-44 -89 -62 -7 -134 55 -49 120 -80 181 -89 l46 -6 -7 -86 c-14 -187 -53 -421
-83 -501 -7 -19 -30 -34 -88 -59 -156 -67 -411 -201 -516 -270 -121 -80 -254
-202 -328 -300 -66 -86 -143 -244 -175 -355 -40 -142 -56 -304 -69 -701 l-12
-370 -18 40 c-36 79 -126 328 -160 443 -148 494 -215 1040 -187 1512 50 820
289 1550 726 2220 305 468 742 915 1199 1225 l85 58 -21 51 c-11 28 -35 93
-52 143 -17 51 -33 93 -36 93 -3 0 -51 -30 -105 -66z m6223 -1287 c430 -577
727 -1285 831 -1987 39 -267 46 -361 45 -680 0 -335 -10 -455 -58 -743 -38
-221 -149 -653 -175 -680 -4 -4 -13 111 -19 255 -19 406 -48 632 -106 824 -81
269 -187 455 -351 619 -135 135 -279 224 -479 295 l-100 35 -16 60 c-17 60
-17 60 -52 58 l-36 -2 -40 102 c-22 56 -50 135 -63 175 l-23 72 17 118 c9 64
20 154 23 199 7 79 9 85 47 125 104 109 118 271 33 382 -17 23 -24 49 -28 100
-7 77 -13 80 76 -32 141 -175 331 -261 556 -249 118 6 240 38 240 63 0 8 -24
25 -52 38 -155 68 -263 324 -328 776 -11 74 -22 146 -25 158 -9 36 7 21 83
-81z m-1934 -377 c38 -150 126 -274 231 -325 31 -16 105 -35 184 -50 163 -29
192 -39 258 -82 94 -62 179 -195 219 -343 21 -78 24 -263 5 -329 -16 -55 -6
-67 42 -52 71 24 159 153 205 301 32 105 44 233 31 345 -11 107 -7 120 53 151
37 19 62 18 108 -6 101 -52 122 -209 43 -323 -19 -27 -29 -35 -31 -25 -2 9 8
32 22 52 48 71 46 178 -4 228 -32 31 -66 36 -109 13 -66 -34 -78 -176 -20
-248 15 -20 19 -38 17 -74 -3 -45 -5 -49 -38 -59 -22 -7 -36 -19 -38 -31 -2
-10 8 -77 22 -147 21 -108 24 -136 15 -180 -31 -149 -91 -316 -162 -449 l-52
-99 -280 -109 c-154 -60 -286 -110 -294 -111 -9 -2 -22 21 -37 66 -13 39 -24
73 -24 77 0 3 26 9 58 13 81 9 238 65 324 116 75 45 231 192 257 243 12 22 12
30 2 40 -10 10 -19 4 -44 -28 -129 -161 -274 -258 -467 -311 -81 -22 -299 -25
-380 -5 -30 7 -93 31 -140 53 -69 33 -100 56 -165 122 -68 68 -89 98 -132 186
-75 152 -100 270 -123 580 -6 80 -15 166 -20 191 -7 38 -4 65 15 139 46 169
132 321 232 410 42 37 193 134 199 127 1 -1 9 -31 18 -67z m-3497 45 c12 -8
37 -48 56 -89 20 -40 50 -90 67 -109 39 -45 119 -84 188 -93 39 -5 55 -12 64
-28 25 -49 73 -87 136 -106 35 -11 74 -20 86 -20 l21 0 -7 -297 c-11 -475 -29
-615 -98 -761 -37 -79 -123 -170 -200 -211 -250 -133 -665 -88 -887 97 -34 29
-67 52 -73 52 -24 0 -6 -32 46 -79 66 -61 187 -122 298 -150 83 -22 290 -46
307 -36 5 4 9 3 9 -2 0 -4 5 -50 10 -101 l10 -94 -31 -43 c-141 -197 -462
-245 -794 -120 -68 25 -205 103 -205 116 0 4 11 54 25 112 13 57 31 157 40
223 19 146 30 491 21 636 l-8 107 -41 28 c-91 63 -158 187 -160 296 0 68 19
102 77 131 59 29 136 5 120 -38 -4 -9 -26 -30 -50 -47 -71 -49 -92 -116 -60
-194 35 -84 162 -100 259 -33 37 26 55 64 64 134 8 56 11 62 72 119 l64 60 -6
-45 c-3 -25 -9 -60 -13 -77 -6 -29 -4 -33 14 -33 11 0 46 23 76 51 95 86 155
246 156 412 1 88 14 144 40 173 31 32 59 30 100 -6 l34 -31 18 35 c35 69 105
96 155 61z m4832 -534 c26 -26 35 -79 22 -127 -10 -38 -11 -39 -56 -39 -41 0
-46 3 -51 25 -3 14 -8 32 -10 40 -6 26 14 94 32 107 25 18 41 16 63 -6z m-85
-460 c-7 -55 -7 -55 -14 -21 -20 94 -20 99 -2 102 22 5 26 -12 16 -81z m36
-388 c7 -21 30 -84 53 -141 22 -56 38 -104 36 -106 -8 -8 -242 -96 -246 -93
-2 2 17 46 41 98 43 92 96 238 96 265 0 25 8 15 20 -23z m321 -418 c85 -29
272 -119 289 -140 9 -11 4 -16 -32 -25 -137 -36 -326 -193 -509 -423 l-81
-102 -132 -61 c-78 -37 -132 -68 -134 -77 -2 -11 14 -25 53 -44 32 -16 54 -32
51 -40 -3 -6 -90 -121 -193 -255 -103 -134 -206 -267 -227 -296 -22 -28 -41
-50 -43 -48 -8 8 49 261 86 382 119 386 303 704 555 958 102 104 210 196 230
196 7 0 46 -11 87 -25z m-1471 -30 c36 -8 90 -15 121 -15 45 0 58 -4 64 -17 9
-23 55 -156 55 -160 0 -1 -16 -9 -35 -17 -19 -8 -35 -21 -35 -28 0 -7 20 -33
45 -58 l45 -46 -127 -64 c-70 -36 -130 -66 -134 -68 -9 -4 -65 169 -84 262 -9
44 -19 115 -22 159 l-6 80 24 -7 c13 -4 53 -13 89 -21z m1939 -256 c142 -142
251 -328 321 -544 78 -245 107 -465 130 -1016 l10 -235 -45 -115 c-59 -148
-205 -443 -293 -591 -334 -560 -794 -1053 -1312 -1407 l-120 -82 0 531 0 530
70 81 c38 45 123 154 187 243 65 88 270 365 455 614 186 249 339 458 341 465
1 7 -6 12 -15 12 -15 0 -476 -608 -858 -1131 -202 -278 -369 -426 -552 -492
-64 -23 -88 -26 -193 -26 -276 2 -377 71 -1085 744 -129 123 -236 226 -237
229 -1 3 29 16 68 29 184 58 366 171 525 325 l104 99 27 -18 c16 -10 167 -116
337 -237 170 -121 317 -222 328 -224 12 -4 18 0 18 10 0 9 -43 46 -95 83 -53
37 -94 73 -91 79 14 38 729 991 988 1319 43 54 78 106 78 115 0 10 -19 26 -46
40 -26 12 -43 26 -38 30 5 5 54 28 108 52 98 44 100 45 175 139 159 198 313
340 435 402 63 32 149 50 177 37 8 -4 52 -45 98 -90z m-5379 1 c150 -34 277
-78 384 -133 78 -40 116 -67 181 -131 45 -45 96 -102 114 -128 l31 -47 -48
-45 c-53 -50 -91 -113 -123 -203 -29 -82 -36 -246 -15 -336 38 -163 144 -294
262 -326 38 -10 40 -13 56 -76 10 -36 31 -99 47 -139 l29 -73 22 -654 21 -654
99 -365 c55 -201 128 -475 163 -610 l64 -245 -28 -12 c-81 -34 -404 -111 -416
-100 -3 3 -27 88 -54 189 -57 217 -50 94 -79 1423 -25 1148 -27 1206 -39 1218
-35 35 -35 2 -12 -990 12 -538 25 -1080 28 -1204 l6 -226 -89 -12 c-198 -26
-343 -32 -875 -38 -396 -4 -561 -2 -576 5 -62 34 -334 249 -472 374 l-54 49
22 587 c12 323 24 637 26 697 13 304 15 363 20 530 3 99 8 198 11 221 2 22 2
48 -2 57 -6 18 -29 23 -38 9 -2 -4 -21 -444 -41 -977 -19 -534 -38 -994 -41
-1024 l-6 -54 -65 64 c-105 103 -287 314 -393 454 -172 228 -365 544 -458 745
l-34 75 6 300 c12 553 28 719 86 898 56 173 127 283 274 425 149 144 339 259
674 410 l112 51 52 -36 c210 -143 527 -199 746 -131 99 30 164 71 234 148 37
40 69 67 78 65 8 -2 58 -13 110 -25z m3673 -230 l-28 -93 -54 -26 -53 -26 -27
33 c-16 18 -34 44 -41 57 -12 22 -11 27 6 40 26 20 217 116 221 111 2 -2 -9
-45 -24 -96z m-273 -87 c0 -5 18 -32 40 -61 l40 -53 -76 -192 c-41 -106 -81
-197 -87 -203 -8 -7 -37 -9 -81 -6 l-69 4 6 62 c3 33 17 93 30 131 32 92 122
271 152 301 24 24 45 31 45 17z m198 -205 c-26 -127 -55 -367 -63 -518 -8
-152 8 -417 34 -570 l19 -113 -36 -48 c-20 -27 -40 -49 -43 -49 -33 0 -181
317 -258 552 l-22 66 42 83 c65 130 160 349 224 516 41 108 64 154 79 161 42
21 44 15 24 -80z m-435 -107 c-24 -73 -45 -204 -35 -228 3 -9 30 -13 89 -13
104 0 105 -10 2 -65 -41 -22 -80 -43 -86 -48 -8 -5 -5 -29 13 -87 l25 -80 -27
-48 c-80 -141 -116 -202 -120 -202 -3 0 -2 35 1 78 26 329 62 528 127 695 16
43 31 77 33 75 2 -2 -8 -36 -22 -77z m-1847 43 c119 -24 311 -100 386 -152 21
-15 117 -121 213 -237 96 -115 193 -231 216 -258 l41 -47 -68 -76 c-38 -42
-105 -118 -150 -169 l-81 -93 -71 64 c-63 58 -79 67 -147 84 -114 29 -134 44
-262 197 -25 30 -64 61 -95 77 -49 24 -61 26 -196 26 -142 0 -182 8 -182 35 0
44 126 76 283 73 75 -2 95 8 78 40 -18 33 -64 61 -132 78 -51 13 -89 15 -195
9 -138 -7 -174 -3 -174 20 0 23 40 43 131 66 127 32 229 24 383 -29 118 -41
136 -43 136 -17 0 15 -114 65 -210 91 -98 27 -256 25 -342 -4 -86 -28 -98 -28
-98 2 0 31 31 51 127 78 65 19 101 22 218 22 124 -1 150 -4 230 -29 107 -33
138 -36 143 -13 3 18 -52 42 -169 74 -89 25 -287 25 -392 1 -62 -15 -84 -16
-111 -7 -45 14 -61 33 -42 49 12 10 150 44 221 54 75 10 241 6 311 -9z m1918
-431 c-34 -78 -39 -80 -53 -32 -7 22 -11 42 -9 44 3 3 81 44 85 45 1 0 -9 -26
-23 -57z m-2024 2 c0 -3 -9 -5 -20 -5 -11 0 -20 7 -20 15 0 13 4 14 20 5 11
-6 20 -13 20 -15z m77 -225 c28 -16 68 -51 89 -77 103 -130 142 -158 263 -192
59 -16 82 -30 136 -77 36 -32 65 -62 65 -67 0 -5 -26 -41 -57 -79 l-56 -69
169 -170 c122 -122 163 -169 149 -170 -11 0 -56 -4 -100 -8 -161 -16 -346 15
-497 82 -180 80 -344 247 -451 457 -35 71 -87 215 -87 244 0 7 23 23 50 34 30
13 70 41 98 71 47 50 47 50 112 50 54 1 74 -4 117 -29z m1952 -118 c58 -167
141 -343 228 -482 15 -25 14 -28 -44 -108 l-60 -82 -172 122 -171 121 0 118 0
117 45 68 c24 38 64 103 87 146 24 43 45 78 48 78 3 0 20 -44 39 -98z m-717
-123 c156 -110 284 -204 286 -208 5 -14 -182 -187 -260 -239 -42 -28 -112 -69
-155 -92 -79 -40 -242 -100 -273 -100 -10 0 -91 71 -181 158 l-164 159 60 73
c126 155 390 450 402 450 1 0 129 -90 285 -201z m458 -199 c0 -38 -3 -70 -7
-70 -5 0 -21 11 -37 23 l-29 24 34 46 c19 25 35 46 37 47 1 0 2 -31 2 -70z
m-1969 -107 c93 -146 268 -290 432 -360 183 -77 403 -102 596 -69 l94 17 71
-68 c375 -359 628 -593 784 -723 l42 -35 10 -490 c5 -269 10 -596 10 -726 l0
-236 -102 -31 c-200 -61 -447 -115 -673 -146 -238 -33 -597 -53 -732 -41 l-79
7 -78 306 c-76 295 -233 889 -336 1267 l-49 180 -15 520 c-9 286 -18 559 -21
608 -3 48 -4 87 -2 87 2 0 24 -30 48 -67z m2149 -1329 c95 -62 312 -106 431
-87 l56 10 7 -171 c3 -94 8 -288 11 -431 3 -143 8 -296 11 -341 l5 -81 -112
-52 c-155 -73 -449 -191 -474 -191 -1 0 -5 213 -9 473 -3 259 -9 575 -13 702
l-6 229 29 -18 c16 -11 45 -30 64 -42z m-1799 -1325 c32 -123 59 -230 59 -237
0 -11 -16 -12 -77 -7 -101 8 -407 46 -411 50 -6 6 -84 307 -80 309 2 1 53 12
114 24 61 12 157 37 215 56 57 19 108 33 113 32 5 -1 35 -103 67 -227z"/>
<path d="M7416 6515 c-14 -38 7 -105 34 -105 14 0 29 58 21 87 -8 32 -45 44
-55 18z"/>
<path d="M6807 6423 c-13 -12 -7 -79 9 -101 22 -31 44 -12 44 39 0 46 -32 84
-53 62z"/>
<path d="M7067 6252 c-29 -30 -57 -100 -57 -141 1 -82 79 -160 169 -169 78 -7
176 47 144 79 -7 7 -22 3 -44 -10 -88 -54 -218 3 -221 96 -1 40 19 97 42 118
11 10 20 24 20 30 0 25 -28 23 -53 -3z"/>
<path d="M7495 5795 c-46 -48 -73 -66 -115 -80 -66 -22 -149 -22 -209 -1 -57
21 -71 20 -71 -3 0 -31 79 -56 180 -56 73 0 93 4 144 29 59 29 166 125 166
150 0 11 -26 30 -33 25 -1 -1 -29 -29 -62 -64z"/>
<path d="M3684 6766 c-7 -19 37 -273 82 -464 39 -166 40 -159 -53 -228 -64
-47 -72 -57 -52 -70 13 -8 111 58 144 98 33 39 32 61 -10 247 -19 86 -45 216
-58 290 -21 126 -38 166 -53 127z"/>
<path d="M3344 6615 c-14 -57 19 -132 45 -101 18 22 25 81 12 105 -16 29 -49
27 -57 -4z"/>
<path d="M3927 6634 c-13 -13 -7 -100 8 -120 15 -19 15 -19 30 1 11 13 15 36
13 70 -3 42 -6 50 -23 53 -12 2 -24 0 -28 -4z"/>
<path d="M3360 5868 c0 -27 45 -83 93 -115 106 -71 230 -62 314 22 66 65 60
75 -44 75 -82 0 -187 9 -310 26 -43 5 -53 4 -53 -8z m289 -54 l104 -7 -28 -23
c-38 -30 -106 -48 -152 -39 -42 7 -127 50 -146 73 -10 13 -4 14 53 9 36 -4
112 -9 169 -13z"/>
<path d="M8625 4831 c-8 -15 5 -19 92 -30 93 -12 163 -36 233 -81 58 -37 145
-129 168 -177 16 -33 35 -42 47 -23 7 12 -24 67 -73 128 -61 75 -182 150 -286
178 -58 16 -172 19 -181 5z"/>
<path d="M2100 4666 c0 -7 24 -41 54 -74 103 -116 161 -218 211 -377 20 -63
37 -100 46 -100 23 0 22 34 -6 123 -45 144 -138 304 -238 410 -32 33 -67 43
-67 18z"/>
</g>
</svg>
