<?xml version="1.0" standalone="no"?>
<!DOCTYPE svg PUBLIC "-//W3C//DTD SVG 20010904//EN"
 "http://www.w3.org/TR/2001/REC-SVG-20010904/DTD/svg10.dtd">
<svg version="1.0" xmlns="http://www.w3.org/2000/svg"
 width="1080.000000pt" height="549.000000pt" viewBox="0 0 1080.000000 549.000000"
 preserveAspectRatio="xMidYMid meet">

<g transform="translate(0.000000,549.000000) scale(0.100000,-0.100000)"
fill="#BE3A3C" stroke="none">
<path d="M5144 5017 c-83 -111 -278 -373 -434 -582 -155 -209 -295 -396 -310
-415 -110 -143 -184 -275 -224 -400 -16 -47 -32 -96 -37 -109 -22 -53 -33
-289 -21 -421 6 -70 15 -138 21 -151 5 -13 21 -62 36 -109 72 -225 236 -446
435 -587 89 -64 230 -135 320 -163 41 -12 98 -30 125 -39 76 -24 436 -23 520
3 235 70 362 134 500 250 208 176 331 371 402 641 25 91 27 116 27 285 0 168
-2 195 -27 292 -45 181 -102 292 -251 495 -50 68 -98 134 -106 146 -8 11 -133
179 -277 371 -254 341 -506 680 -507 682 -1 1 -10 4 -21 7 -17 5 -45 -27 -171
-196z m287 -1134 c31 -32 69 -77 83 -100 15 -25 34 -43 44 -43 10 0 44 13 75
29 49 25 174 61 212 61 33 0 85 -158 85 -254 0 -61 18 -72 122 -79 69 -4 108
-12 151 -31 57 -25 57 -25 57 -69 0 -47 -25 -129 -65 -215 -14 -29 -25 -54
-25 -56 0 -2 24 -20 53 -39 80 -53 177 -156 177 -187 0 -34 -74 -118 -153
-174 -34 -24 -100 -59 -147 -77 -83 -33 -88 -34 -235 -34 -147 0 -151 1 -235
34 -99 40 -163 82 -241 158 -64 62 -67 62 -129 -3 -75 -79 -169 -135 -289
-174 -91 -29 -276 -29 -363 1 -94 32 -157 63 -219 111 -67 51 -139 132 -139
156 0 26 82 114 161 172 49 37 69 58 66 69 -3 9 -19 50 -37 91 -38 90 -53 154
-45 191 8 37 90 67 213 78 51 5 95 11 99 14 3 4 14 57 24 119 21 125 32 158
59 183 17 16 24 16 97 -1 43 -9 104 -30 137 -46 70 -35 93 -32 123 19 29 52
118 150 151 166 36 18 61 5 133 -70z"/>
<path d="M3323 3148 c-21 -15 -39 -42 -52 -76 -19 -49 -21 -76 -21 -290 0
-230 27 -591 50 -667 5 -16 12 -52 16 -80 13 -101 72 -320 100 -374 8 -14 14
-29 14 -33 0 -4 23 -47 51 -95 92 -157 172 -244 379 -408 184 -148 237 -237
310 -520 10 -38 21 -90 24 -115 4 -25 11 -72 17 -105 5 -33 13 -112 17 -175
l7 -115 315 -3 c173 -1 325 0 336 3 16 3 23 15 28 44 3 22 6 242 6 488 0 385
-2 468 -19 593 -21 162 -39 211 -117 331 -26 41 -51 76 -54 79 -3 3 -37 43
-74 90 -37 47 -86 105 -109 130 -22 25 -63 70 -91 100 -27 30 -128 135 -223
232 -189 193 -214 210 -283 189 -52 -15 -75 -44 -74 -95 0 -46 29 -94 163
-271 42 -55 87 -116 100 -135 125 -180 146 -225 118 -249 -23 -18 -73 6 -172
84 -102 80 -194 179 -244 265 -55 94 -116 283 -146 450 -3 19 -13 64 -21 100
-8 36 -26 121 -40 190 -55 277 -97 370 -192 431 -55 35 -77 36 -119 7z"/>
<path d="M7220 3148 c-98 -64 -148 -173 -200 -433 -132 -667 -161 -740 -373
-942 -92 -87 -175 -147 -219 -158 -33 -8 -53 21 -39 57 10 26 103 166 160 243
21 28 81 110 134 183 86 119 97 138 97 176 0 75 -76 122 -154 96 -26 -8 -89
-67 -234 -218 -371 -385 -515 -562 -592 -722 -53 -111 -75 -417 -67 -940 5
-342 7 -375 23 -387 25 -19 647 -19 662 0 5 6 12 66 15 132 9 227 69 491 148
650 40 82 100 149 212 236 184 143 334 315 415 474 73 142 148 450 172 705 27
277 31 369 27 540 -4 200 -16 257 -61 299 -35 33 -84 36 -126 9z"/>
</g>
</svg>
